<?xml version="1.0" encoding="UTF-8" standalone="no"?>
<!DOCTYPE svg PUBLIC "-//W3C//DTD SVG 1.1//EN" "http://www.w3.org/Graphics/SVG/1.1/DTD/svg11.dtd">
<svg width="100%" height="100%" viewBox="0 0 513 513" version="1.1" xmlns="http://www.w3.org/2000/svg" xmlns:xlink="http://www.w3.org/1999/xlink" xml:space="preserve" xmlns:serif="http://www.serif.com/" style="fill-rule:evenodd;clip-rule:evenodd;stroke-linejoin:round;stroke-miterlimit:2;">
    <g>
        <g>
            <path d="M447.28,304.8L446.915,299.79C441.05,223.436 405.498,175.571 374.134,133.352C345.092,94.258 320.009,60.498 320.009,10.685C320.009,6.685 317.769,3.029 314.217,1.195C310.654,-0.649 306.373,-0.347 303.134,2.008C256.03,35.716 216.728,92.529 202.999,146.737C193.468,184.477 192.207,226.904 192.03,254.925C148.53,245.633 138.676,180.56 138.572,179.852C138.082,176.477 136.02,173.539 133.02,171.935C129.989,170.352 126.426,170.237 123.353,171.758C121.072,172.862 67.363,200.154 64.238,309.133C64.019,312.758 64.009,316.383 64.009,320.018C64.009,425.883 150.144,512.018 256.009,512.018C361.874,512.018 448.009,425.883 448.009,320.018C448.009,314.706 447.645,309.748 447.28,304.8ZM256.009,490.685C220.717,490.685 192.009,460.102 192.009,422.508C192.009,421.227 191.999,419.935 192.092,418.352C192.519,402.498 195.53,391.675 198.832,384.477C205.02,397.769 216.092,409.987 234.051,409.987C239.947,409.987 244.718,405.216 244.718,399.32C244.718,384.132 245.031,366.612 248.812,350.799C252.177,336.768 260.218,321.861 270.406,309.903C274.937,325.424 283.771,337.986 292.396,350.247C304.74,367.789 317.5,385.924 319.74,416.851C319.875,418.684 320.011,420.528 320.011,422.507C320.009,460.102 291.301,490.685 256.009,490.685ZM323.421,476.748C334.493,461.649 341.343,442.985 341.343,422.508C341.343,419.998 341.187,417.664 340.874,413.3C338.343,378.477 323.207,356.956 309.843,337.967C298.458,321.8 288.635,307.832 288.635,288.019C288.635,283.967 286.343,280.269 282.718,278.467C279.114,276.654 274.76,277.061 271.541,279.509C251.083,294.967 234.02,320.988 228.062,345.832C225.02,358.572 223.958,372.353 223.583,383.686C216.187,375.728 213.895,360.978 213.875,360.78C213.396,357.353 211.292,354.363 208.219,352.77C205.167,351.187 201.511,351.145 198.438,352.728C195.75,354.103 172.136,367.645 170.782,417.457C170.688,419.145 170.678,420.832 170.678,422.509C170.678,442.986 177.528,461.65 188.6,476.749C127.936,450.554 85.345,390.186 85.345,320.02C85.345,316.822 85.335,313.635 85.553,310.082C87.386,246.144 107.845,214.436 121.199,200.447C130.511,233.78 154.907,277.353 202.678,277.353C208.574,277.353 213.345,272.582 213.345,266.686C213.345,230.988 214.147,189.738 223.689,151.967C234.522,109.175 264.199,62.967 300.022,31.686C305.97,77.374 330.855,110.874 357.012,146.071C388.106,187.925 420.252,231.206 425.637,301.29L426.002,306.394C426.335,310.832 426.679,315.259 426.679,320.019C426.676,390.185 384.085,450.553 323.421,476.748Z" style="fill:rgb(249,249,249);fill-rule:nonzero;"/>
        </g>
    </g>
</svg>
