<?xml version="1.0" encoding="UTF-8" standalone="no"?>
<!DOCTYPE svg PUBLIC "-//W3C//DTD SVG 1.1//EN" "http://www.w3.org/Graphics/SVG/1.1/DTD/svg11.dtd">
<svg width="100%" height="100%" viewBox="0 0 416 416" version="1.1" xmlns="http://www.w3.org/2000/svg" xmlns:xlink="http://www.w3.org/1999/xlink" xml:space="preserve" xmlns:serif="http://www.serif.com/" style="fill-rule:evenodd;clip-rule:evenodd;stroke-linejoin:round;stroke-miterlimit:2;">
    <g>
        <g>
            <rect x="120.038" y="279" width="19" height="137" style="fill:rgb(249,249,249);"/>
        </g>
    </g>
    <g>
        <g>
            <rect x="199.038" y="256" width="19" height="160" style="fill:rgb(249,249,249);"/>
        </g>
    </g>
    <g>
        <g>
            <rect x="42.038" y="365" width="18" height="51" style="fill:rgb(249,249,249);"/>
        </g>
    </g>
    <g>
        <g>
            <rect x="277.039" y="198" width="19" height="218" style="fill:rgb(249,249,249);"/>
        </g>
    </g>
    <g>
        <g>
            <rect x="356.039" y="146" width="18" height="270" style="fill:rgb(249,249,249);"/>
        </g>
    </g>
    <g>
        <g>
            <path d="M399.939,2.7C397.939,1 395.439,0 392.739,0L324.239,0C318.739,0 314.239,4.5 314.239,10C314.239,15.5 318.739,20 324.239,20L368.439,19.9L260.339,128.1L222.439,90C220.539,88.1 218.039,87 215.339,86.9C212.639,87 210.139,88.1 208.239,90L16.239,282.2C12.239,286 12.139,292.4 15.939,296.4C19.739,300.4 26.139,300.5 30.139,296.7C30.239,296.6 30.339,296.5 30.439,296.5L215.439,111.5L253.339,149.3C255.239,151.1 257.739,152.1 260.439,152.1C263.039,152.1 265.639,151.1 267.539,149.3L382.838,34L382.738,78.1C382.738,83.6 387.138,88 392.638,88L392.738,88C398.238,88.1 402.638,83.7 402.738,78.2L402.738,78.1L402.838,9.7C402.839,7.1 401.739,4.6 399.939,2.7Z" style="fill:rgb(249,249,249);fill-rule:nonzero;"/>
        </g>
    </g>
</svg>
