<?xml version="1.0" encoding="UTF-8" standalone="no"?>
<!DOCTYPE svg PUBLIC "-//W3C//DTD SVG 1.1//EN" "http://www.w3.org/Graphics/SVG/1.1/DTD/svg11.dtd">
<svg width="100%" height="100%" viewBox="0 0 512 512" version="1.1" xmlns="http://www.w3.org/2000/svg" xmlns:xlink="http://www.w3.org/1999/xlink" xml:space="preserve" xmlns:serif="http://www.serif.com/" style="fill-rule:evenodd;clip-rule:evenodd;stroke-linejoin:round;stroke-miterlimit:2;">
    <g>
        <path d="M256,224C249.6,224 245.333,219.733 245.333,213.333L245.333,181.333C245.333,174.933 249.6,170.667 256,170.667C262.4,170.667 266.667,174.933 266.667,181.333L266.667,213.333C266.667,219.733 262.4,224 256,224Z" style="fill:rgb(249,249,249);fill-rule:nonzero;"/>
    </g>
    <g>
        <path d="M266.667,192L213.333,192C206.933,192 202.667,187.733 202.667,181.333C202.667,174.933 206.933,170.667 213.333,170.667L266.667,170.667C279.467,170.667 288,162.133 288,149.333C288,136.533 279.467,128 266.667,128L245.333,128C221.867,128 202.667,108.8 202.667,85.333C202.667,61.867 221.867,42.667 245.333,42.667L298.667,42.667C305.067,42.667 309.333,46.933 309.333,53.333C309.333,59.733 305.067,64 298.667,64L245.333,64C232.533,64 224,72.533 224,85.333C224,98.133 232.533,106.667 245.333,106.667L266.667,106.667C290.133,106.667 309.333,125.867 309.333,149.333C309.333,172.8 290.133,192 266.667,192Z" style="fill:rgb(249,249,249);fill-rule:nonzero;"/>
    </g>
    <g>
        <path d="M256,64C249.6,64 245.333,59.733 245.333,53.333L245.333,21.333C245.333,14.933 249.6,10.667 256,10.667C262.4,10.667 266.667,14.933 266.667,21.333L266.667,53.333C266.667,59.733 262.4,64 256,64Z" style="fill:rgb(249,249,249);fill-rule:nonzero;"/>
    </g>
    <g>
        <path d="M74.667,501.333C68.267,501.333 64,497.067 64,490.667L64,458.667C64,452.267 68.267,448 74.667,448C81.067,448 85.333,452.267 85.333,458.667L85.333,490.667C85.333,497.067 81.067,501.333 74.667,501.333Z" style="fill:rgb(249,249,249);fill-rule:nonzero;"/>
    </g>
    <g>
        <path d="M85.333,469.333L32,469.333C25.6,469.333 21.333,465.067 21.333,458.667C21.333,452.267 25.6,448 32,448L85.333,448C98.133,448 106.667,439.467 106.667,426.667C106.667,413.867 98.133,405.333 85.333,405.333L64,405.333C40.533,405.333 21.333,386.133 21.333,362.667C21.333,339.2 40.533,320 64,320L117.333,320C123.733,320 128,324.267 128,330.667C128,337.067 123.733,341.333 117.333,341.333L64,341.333C51.2,341.333 42.667,349.867 42.667,362.667C42.667,375.467 51.2,384 64,384L85.333,384C108.8,384 128,403.2 128,426.667C128,450.133 108.8,469.333 85.333,469.333Z" style="fill:rgb(249,249,249);fill-rule:nonzero;"/>
    </g>
    <g>
        <path d="M74.667,341.333C68.267,341.333 64,337.067 64,330.667L64,298.667C64,292.267 68.267,288 74.667,288C81.067,288 85.333,292.267 85.333,298.667L85.333,330.667C85.333,337.067 81.067,341.333 74.667,341.333Z" style="fill:rgb(249,249,249);fill-rule:nonzero;"/>
    </g>
    <g>
        <path d="M437.333,501.333C430.933,501.333 426.667,497.067 426.667,490.667L426.667,458.667C426.667,452.267 430.933,448 437.333,448C443.733,448 448,452.267 448,458.667L448,490.667C448,497.067 443.733,501.333 437.333,501.333Z" style="fill:rgb(249,249,249);fill-rule:nonzero;"/>
    </g>
    <g>
        <path d="M448,469.333L394.667,469.333C388.267,469.333 384,465.067 384,458.667C384,452.267 388.267,448 394.667,448L448,448C460.8,448 469.333,439.467 469.333,426.667C469.333,413.867 460.8,405.333 448,405.333L426.667,405.333C403.2,405.333 384,386.133 384,362.667C384,339.2 403.2,320 426.667,320L480,320C486.4,320 490.667,324.267 490.667,330.667C490.667,337.067 486.4,341.333 480,341.333L426.667,341.333C413.867,341.333 405.333,349.867 405.333,362.667C405.333,375.467 413.867,384 426.667,384L448,384C471.467,384 490.667,403.2 490.667,426.667C490.667,450.133 471.467,469.333 448,469.333Z" style="fill:rgb(249,249,249);fill-rule:nonzero;"/>
    </g>
    <g>
        <path d="M437.333,341.333C430.933,341.333 426.667,337.067 426.667,330.667L426.667,298.667C426.667,292.267 430.933,288 437.333,288C443.733,288 448,292.267 448,298.667L448,330.667C448,337.067 443.733,341.333 437.333,341.333Z" style="fill:rgb(249,249,249);fill-rule:nonzero;"/>
    </g>
    <g>
        <path d="M53.333,266.667C46.933,266.667 42.667,262.4 42.667,256C42.667,172.8 91.733,98.133 166.4,61.867C172.8,59.733 177.067,61.867 181.333,66.133C183.467,72.533 181.333,76.8 177.067,81.067C106.667,113.067 64,181.333 64,256C64,262.4 59.733,266.667 53.333,266.667Z" style="fill:rgb(249,249,249);fill-rule:nonzero;"/>
    </g>
    <g>
        <path d="M458.667,266.667C452.267,266.667 448,262.4 448,256C448,181.333 405.333,113.067 337.067,81.067C330.667,78.933 328.533,72.533 332.8,66.133C334.933,61.867 341.333,57.6 347.733,61.867C420.267,98.133 469.333,172.8 469.333,256C469.333,262.4 465.067,266.667 458.667,266.667Z" style="fill:rgb(249,249,249);fill-rule:nonzero;"/>
    </g>
    <g>
        <path d="M256,469.333C224,469.333 194.133,462.933 166.4,450.133C160,448 157.867,441.6 162.133,435.2C166.4,428.8 170.667,426.667 174.933,430.933C226.133,454.4 285.867,454.4 337.067,430.933C343.467,428.8 347.733,430.933 352,435.2C354.133,441.6 352,445.867 347.733,450.133C317.867,462.933 288,469.333 256,469.333Z" style="fill:rgb(249,249,249);fill-rule:nonzero;"/>
    </g>
</svg>
