<?xml version="1.0" encoding="UTF-8" standalone="no"?>
<!DOCTYPE svg PUBLIC "-//W3C//DTD SVG 1.1//EN" "http://www.w3.org/Graphics/SVG/1.1/DTD/svg11.dtd">
<svg width="100%" height="100%" viewBox="0 0 512 512" version="1.1" xmlns="http://www.w3.org/2000/svg" xmlns:xlink="http://www.w3.org/1999/xlink" xml:space="preserve" xmlns:serif="http://www.serif.com/" style="fill-rule:evenodd;clip-rule:evenodd;stroke-linejoin:round;stroke-miterlimit:2;">
    <g>
        <g>
            <path d="M334.954,137.804L89.765,137.804C85.605,137.804 82.233,141.176 82.233,145.336C82.233,149.496 85.605,152.868 89.765,152.868L334.955,152.868C339.115,152.868 342.487,149.496 342.487,145.336C342.487,141.176 339.114,137.804 334.954,137.804Z" style="fill:rgb(249,249,249);fill-rule:nonzero;"/>
            <path d="M89.765,100.621L212.359,100.621C216.519,100.621 219.891,97.249 219.891,93.089C219.891,88.929 216.519,85.557 212.359,85.557L89.765,85.557C85.605,85.557 82.233,88.929 82.233,93.089C82.233,97.25 85.605,100.621 89.765,100.621Z" style="fill:rgb(249,249,249);fill-rule:nonzero;"/>
            <path d="M334.954,184.096L89.765,184.096C85.605,184.096 82.233,187.468 82.233,191.628C82.233,195.788 85.605,199.16 89.765,199.16L334.955,199.16C339.115,199.16 342.487,195.788 342.487,191.628C342.486,187.468 339.114,184.096 334.954,184.096Z" style="fill:rgb(249,249,249);fill-rule:nonzero;"/>
            <path d="M145.618,459.668L67.151,459.668C54.272,459.668 43.793,449.19 43.793,436.311L43.793,38.421C43.793,25.542 54.272,15.063 67.151,15.063L293.207,15.063C293.937,15.063 294.656,15.13 295.367,15.226L295.367,62.2C295.367,83.386 312.603,100.621 333.788,100.621L380.761,100.621C380.858,101.333 380.924,102.052 380.924,102.782L380.924,231.043C380.924,235.203 384.296,238.575 388.456,238.575C392.616,238.575 395.988,235.203 395.988,231.043L395.988,102.783C395.988,94.521 392.77,86.753 386.928,80.91L315.078,9.06C309.236,3.218 301.469,0 293.207,0L67.151,0C45.965,0 28.73,17.236 28.73,38.421L28.73,436.311C28.73,457.496 45.966,474.731 67.151,474.731L145.618,474.731C149.778,474.731 153.15,471.359 153.15,467.199C153.15,463.039 149.778,459.668 145.618,459.668ZM370.273,85.558L333.789,85.558C320.91,85.558 310.431,75.079 310.431,62.2L310.431,25.716L370.273,85.558Z" style="fill:rgb(249,249,249);fill-rule:nonzero;"/>
            <path d="M480.958,368.729L417.14,261.009C412.489,253.155 402.367,250.559 394.509,255.214L378.986,264.411C366.937,271.549 361.844,285.994 365.981,298.795C360.751,300.69 355.017,300.66 349.737,298.619C337.481,294.763 328.163,287.006 312.774,290.898C286.644,297.551 287.438,297.218 285.074,298.028C269.774,289.317 260.577,286.725 244.335,293.008L229.857,298.605C223.154,301.195 215.768,300.581 209.574,296.911L205.623,294.582C207.551,283.03 202.428,270.839 191.58,264.413L191.579,264.412L176.057,255.216C168.221,250.575 158.069,253.173 153.427,261.009L89.607,368.73C84.956,376.582 87.544,386.707 95.4,391.36L110.922,400.556C115.619,403.339 120.781,404.662 125.881,404.662C131.568,404.662 137.175,403.014 141.969,399.91L145.204,401.819L138.374,411.332C130.235,422.67 132.821,438.436 144.161,446.576C149.405,450.34 155.993,452.059 162.806,450.989C163.887,457.308 167.349,463.222 172.955,467.248C178.22,471.028 184.778,472.749 191.603,471.674C192.687,477.988 196.147,483.897 201.75,487.92C209.28,493.325 218.642,493.95 226.443,490.618C228.15,495.052 231.117,499.056 235.256,502.028C246.064,509.785 260.952,507.762 269.35,497.712L287.5,508.464C299.503,515.577 314.99,511.624 322.107,499.607C323.927,496.535 325.056,493.187 325.469,489.746L325.51,489.771C337.495,496.869 353.017,492.895 360.117,480.913C362.173,477.442 363.3,473.677 363.574,469.904C374.138,472.56 385.651,468.123 391.481,458.283C393.394,455.055 394.503,451.568 394.868,448.059C406.19,452.502 419.423,448.208 425.817,437.416C429.256,431.611 430.229,424.815 428.556,418.278C427.599,414.538 425.839,411.143 423.423,408.276L433.427,402.431C441.89,405.905 451.548,405.349 459.642,400.555L475.162,391.359C483.018,386.709 485.613,376.586 480.958,368.729ZM118.6,387.597L103.078,378.4C102.388,377.991 102.159,377.097 102.567,376.407L166.387,268.684C166.798,267.991 167.695,267.766 168.381,268.174L183.902,277.369C190.799,281.456 192.957,290.302 188.945,297.073L138.304,382.553C134.262,389.377 125.424,391.638 118.6,387.597ZM152.945,434.339C148.371,431.055 147.325,424.693 150.611,420.117L160.65,406.133C163.848,401.678 170.221,400.459 174.872,403.798C179.437,407.075 180.484,413.454 177.208,418.019L167.168,432.003C163.891,436.57 157.508,437.614 152.945,434.339ZM181.74,455.012C177.175,451.734 176.128,445.353 179.405,440.789L189.444,426.806L189.444,426.805C189.444,426.805 189.444,426.804 189.445,426.804L200.524,411.372C202.112,409.161 204.465,407.699 207.151,407.259C207.709,407.167 208.268,407.122 208.823,407.122C210.937,407.122 212.994,407.78 214.746,409.037C216.956,410.625 218.418,412.977 218.858,415.663C219.299,418.35 218.668,421.047 217.08,423.258L195.961,452.676C192.679,457.251 186.316,458.298 181.74,455.012ZM210.535,475.683C205.972,472.407 204.924,466.031 208.195,461.467C208.196,461.465 208.198,461.463 208.199,461.461L229.318,432.044C232.593,427.48 238.977,426.432 243.54,429.708C248.105,432.985 249.152,439.365 245.875,443.93L236.492,457.001L236.491,457.002L224.756,473.348C221.479,477.913 215.101,478.962 210.535,475.683ZM244.041,489.791C239.479,486.515 238.43,480.142 241.699,475.577L248.728,465.787C252.004,461.221 258.387,460.177 262.95,463.452C267.514,466.728 268.562,473.109 265.285,477.674L258.262,487.455C254.986,492.021 248.604,493.069 244.041,489.791ZM412.86,429.739C409.994,434.576 403.73,436.18 398.892,433.315C390.7,428.462 337.856,397.155 332.222,393.817C328.642,391.697 324.023,392.878 321.903,396.457C319.783,400.036 320.964,404.656 324.543,406.776L374.946,436.637L374.947,436.638C379.786,439.504 381.4,445.749 378.523,450.607C375.656,455.446 369.389,457.047 364.553,454.184C345.911,443.14 330.774,434.172 314.123,424.307C310.542,422.187 305.924,423.368 303.804,426.947C301.684,430.526 302.865,435.146 306.444,437.266L343.582,459.268L343.59,459.273C348.432,462.148 350.03,468.39 347.159,473.238C344.292,478.077 338.027,479.68 333.188,476.814L313.257,465.007C313.255,465.006 313.252,465.005 313.25,465.003C313.248,465.002 313.246,465.001 313.244,465L298.699,456.382C295.119,454.261 290.5,455.442 288.38,459.022C286.26,462.601 287.441,467.221 291.02,469.341L305.568,477.96C305.57,477.961 305.572,477.963 305.574,477.964C310.413,480.83 312.027,487.074 309.15,491.932C306.283,496.771 300.018,498.374 295.179,495.508L278.208,485.455C285.483,474.229 282.716,459.101 271.735,451.219C268.51,448.905 264.919,447.464 261.246,446.845C265.142,436.428 261.783,424.266 252.324,417.476C246.724,413.454 240.019,412.065 233.691,413.057C232.565,406.472 228.964,400.704 223.531,396.805C213.313,389.472 199.427,390.881 190.85,399.558C189.107,396.497 186.701,393.751 183.657,391.566C175.166,385.472 164.142,385.415 155.736,390.548L152.285,388.511L199.655,308.552L201.91,309.882C211.87,315.782 224.024,317.012 235.288,312.656L249.766,307.059C258.051,303.857 262.62,303.648 270.815,307.515C265.453,313.539 262.27,321.448 262.27,329.972L262.27,363.367C262.27,372.237 269.481,379.458 278.344,379.464L278.366,379.464C287.256,379.464 295.616,376.003 301.905,369.718C305.571,366.054 308.277,361.686 309.899,356.918C319.624,362.677 399.971,410.256 409.286,415.775C411.629,417.163 413.291,419.38 413.966,422.018C414.641,424.653 414.248,427.396 412.86,429.739ZM467.488,378.4L451.965,387.597C445.141,391.637 436.303,389.374 432.263,382.554L408.527,342.489C406.406,338.91 401.784,337.729 398.208,339.847C394.629,341.967 393.447,346.587 395.566,350.166L419.302,390.232C419.749,390.986 420.234,391.703 420.736,392.402L414.137,396.257C412.803,397.047 411.52,397.917 410.293,398.862L307.97,338.267C302.957,335.3 296.601,338.917 296.601,344.747C296.522,345.197 297.379,352.939 291.256,359.06C287.812,362.501 283.234,364.397 278.365,364.397L278.353,364.397C277.79,364.397 277.332,363.933 277.332,363.363L277.332,329.968C277.332,321.244 283.334,313.884 291.451,311.829L316.467,305.498C325.544,303.204 330.675,308.051 344.266,312.651C353.701,316.301 363.96,316.076 373.066,312.187L377.612,319.861C379.733,323.442 384.353,324.622 387.931,322.503C391.51,320.383 392.692,315.763 390.573,312.184L381.619,297.071C377.568,290.233 379.825,281.421 386.662,277.368L402.184,268.173C402.862,267.77 403.759,267.976 404.179,268.684L467.997,376.405C468.409,377.1 468.182,377.989 467.488,378.4Z" style="fill:rgb(249,249,249);fill-rule:nonzero;"/>
        </g>
    </g>
</svg>
