<?xml version="1.0" encoding="UTF-8" standalone="no"?>
<!DOCTYPE svg PUBLIC "-//W3C//DTD SVG 1.1//EN" "http://www.w3.org/Graphics/SVG/1.1/DTD/svg11.dtd">
<svg width="100%" height="100%" viewBox="0 0 512 512" version="1.1" xmlns="http://www.w3.org/2000/svg" xmlns:xlink="http://www.w3.org/1999/xlink" xml:space="preserve" xmlns:serif="http://www.serif.com/" style="fill-rule:evenodd;clip-rule:evenodd;stroke-linejoin:round;stroke-miterlimit:2;">
    <g>
        <g>
            <g>
                <path d="M230.792,354.313L224.063,414.823C223.73,417.833 224.698,420.854 226.719,423.115C228.74,425.375 231.636,426.667 234.667,426.667L277.334,426.667C280.365,426.667 283.261,425.375 285.282,423.115C287.303,420.855 288.272,417.834 287.938,414.823L281.209,354.313C292.136,346.365 298.667,333.792 298.667,320C298.667,296.469 279.532,277.333 256,277.333C232.468,277.333 213.333,296.469 213.333,320C213.333,333.792 219.865,346.365 230.792,354.313ZM256,298.667C267.76,298.667 277.333,308.24 277.333,320C277.333,328.177 272.687,335.5 265.208,339.125C261.135,341.104 258.75,345.417 259.25,349.906L265.417,405.333L246.584,405.333L252.751,349.906C253.251,345.416 250.866,341.104 246.793,339.125C239.314,335.5 234.668,328.177 234.668,320C234.667,308.24 244.24,298.667 256,298.667Z" style="fill:rgb(249,249,249);fill-rule:nonzero;"/>
                <path d="M437.333,192L405.333,192L405.333,149.333C405.333,66.99 338.344,0 256,0C173.656,0 106.667,66.99 106.667,149.333L106.667,192L74.667,192C68.771,192 64,196.771 64,202.667L64,469.334C64,492.865 83.135,512 106.667,512L405.334,512C428.865,512 448,492.865 448,469.333L448,202.667C448,196.771 443.229,192 437.333,192ZM128,149.333C128,78.75 185.417,21.333 256,21.333C326.583,21.333 384,78.75 384,149.333L384,192L362.667,192L362.667,149.333C362.667,90.52 314.813,42.666 256,42.666C197.187,42.666 149.333,90.521 149.333,149.333L149.333,192L128,192L128,149.333ZM341.333,149.333L341.333,192L170.667,192L170.667,149.333C170.667,102.281 208.948,64 256,64C303.052,64 341.333,102.281 341.333,149.333ZM426.667,469.333C426.667,481.093 417.094,490.666 405.334,490.666L106.667,490.666C94.907,490.666 85.334,481.093 85.334,469.333L85.334,213.333L426.667,213.333L426.667,469.333Z" style="fill:rgb(249,249,249);fill-rule:nonzero;"/>
            </g>
        </g>
    </g>
</svg>
