<?xml version="1.0" encoding="UTF-8" standalone="no"?>
<!DOCTYPE svg PUBLIC "-//W3C//DTD SVG 1.1//EN" "http://www.w3.org/Graphics/SVG/1.1/DTD/svg11.dtd">
<svg width="100%" height="100%" viewBox="0 0 480 480" version="1.1" xmlns="http://www.w3.org/2000/svg" xmlns:xlink="http://www.w3.org/1999/xlink" xml:space="preserve" xmlns:serif="http://www.serif.com/" style="fill-rule:evenodd;clip-rule:evenodd;stroke-linejoin:round;stroke-miterlimit:2;">
    <g>
        <g>
            <path d="M207.808,400C205.759,359.997 183.688,323.721 149.104,303.512L93.84,242.112C86.407,233.69 74.879,230.148 64,232.944L64,128C64,110.327 49.673,96 32,96C14.327,96 0,110.327 0,128L0,279.416C0.008,291.657 3.127,303.695 9.064,314.4L80,442.072L80,472C80,476.418 83.582,480 88,480L200,480C204.418,480 208,476.418 208,472L208,400L207.808,400ZM192,464L96,464L96,440C96,438.639 95.653,437.301 94.992,436.112L23.048,306.616C18.434,298.292 16.009,288.933 16,279.416L16,128C16,119.163 23.163,112 32,112C40.837,112 48,119.163 48,128L48,242.824C37.99,254.457 38.22,271.726 48.536,283.088L114.08,355.2L125.92,344.432L60.376,272.328C55.152,266.582 55.363,257.745 60.856,252.256C66.53,246.577 75.734,246.573 81.413,252.248C81.598,252.433 81.777,252.622 81.952,252.816L138.056,315.152C138.77,315.87 139.577,316.489 140.456,316.992C172.295,335.235 191.953,369.105 192,405.8L192,464Z" style="fill:rgb(249,249,249);fill-rule:nonzero;"/>
        </g>
    </g>
    <g>
        <g>
            <path d="M448,96C430.327,96 416,110.327 416,128L416,232.944C413.407,232.288 410.739,231.971 408.064,232C399.678,232.187 391.746,235.846 386.16,242.104L330.912,303.488C296.281,323.663 274.191,359.971 272.192,400L272,400L272,472C272,476.418 275.582,480 280,480L392,480C396.418,480 400,476.418 400,472L400,442.056L470.056,315.08C476.563,304.015 479.996,291.413 480,278.576L480,128C480,110.327 465.673,96 448,96ZM464,278.576C463.988,288.633 461.281,298.504 456.16,307.16L384.96,436.136C384.319,437.323 383.989,438.652 384,440L384,464L288,464L288,405.8C288.098,368.962 307.923,334.999 339.952,316.8C340.697,316.377 341.37,315.837 341.944,315.2L398.048,252.8C403.436,246.835 412.639,246.368 418.604,251.756C424.569,257.144 425.036,266.347 419.648,272.312L354.08,344.416L365.92,355.2L431.464,283.104C441.79,271.739 442.019,254.459 432,242.824L432,128C432,119.163 439.163,112 448,112C456.837,112 464,119.163 464,128L464,278.576Z" style="fill:rgb(249,249,249);fill-rule:nonzero;"/>
        </g>
    </g>
    <g>
        <g>
            <path d="M336,200L320,200C291.302,200.031 264.425,214.067 248,237.6L248,184L256,184C304.577,183.943 343.943,144.577 344,96C344,91.582 340.418,88 336,88L320,88C291.302,88.031 264.425,102.067 248,125.6L248,72L256,72C291.33,71.96 319.96,43.33 320,8C320,3.582 316.418,0 312,0L296,0C272.702,0.014 251.253,12.688 240,33.088C228.747,12.688 207.298,0.014 184,0L168,0C163.582,0 160,3.582 160,8C160.04,43.33 188.67,71.96 224,72L232,72L232,125.6C215.575,102.067 188.698,88.031 160,88L144,88C139.582,88 136,91.582 136,96C136.057,144.577 175.423,183.943 224,184L232,184L232,237.6C215.575,214.067 188.698,200.031 160,200L144,200C139.582,200 136,203.582 136,208C136.057,256.577 175.423,295.943 224,296L232,296L232,360L248,360L248,296L256,296C304.577,295.943 343.943,256.577 344,208C344,203.582 340.418,200 336,200ZM320,104L327.56,104C323.44,140.421 292.653,167.956 256,168L248.44,168C252.56,131.579 283.347,104.044 320,104ZM296,16L303.336,16C299.401,39.08 279.413,55.971 256,56L248.664,56C252.599,32.92 272.587,16.029 296,16ZM224,56C200.587,55.971 180.599,39.08 176.664,16L184,16C207.413,16.029 227.401,32.92 231.336,56L224,56ZM224,168C187.347,167.956 156.56,140.421 152.44,104L160,104C196.653,104.044 227.44,131.579 231.56,168L224,168ZM224,280C187.347,279.956 156.56,252.421 152.44,216L160,216C196.653,216.044 227.44,243.579 231.56,280L224,280ZM256,280L248.44,280C252.56,243.579 283.347,216.044 320,216L327.56,216C323.44,252.421 292.653,279.956 256,280Z" style="fill:rgb(249,249,249);fill-rule:nonzero;"/>
        </g>
    </g>
</svg>
