<?xml version="1.0" encoding="UTF-8" standalone="no"?>
<!DOCTYPE svg PUBLIC "-//W3C//DTD SVG 1.1//EN" "http://www.w3.org/Graphics/SVG/1.1/DTD/svg11.dtd">
<svg width="100%" height="100%" viewBox="0 0 480 480" version="1.1" xmlns="http://www.w3.org/2000/svg" xmlns:xlink="http://www.w3.org/1999/xlink" xml:space="preserve" xmlns:serif="http://www.serif.com/" style="fill-rule:evenodd;clip-rule:evenodd;stroke-linejoin:round;stroke-miterlimit:2;">
    <path d="M320,472L320,328C320,323.582 316.418,320 312,320L277.504,320L437.223,182.055C437.941,181.18 438.609,180.266 439.23,179.32C439.398,178.875 439.523,178.414 439.609,177.945C439.754,177.391 440,176.105 440,176C440,78.953 350.281,0 240,0C129.719,0 40,78.953 40,176C40.207,177.121 40.473,178.227 40.801,179.32C41.016,179.707 41.266,180.078 41.543,180.426C41.879,180.922 42.727,182.023 42.809,182.023L202.496,320L168,320C163.582,320 160,323.582 160,328L160,472C160,476.418 163.582,480 168,480L312,480C316.418,480 320,476.418 320,472ZM248,179.602C248.309,179.063 248.559,178.492 248.734,177.895C252.391,162.887 268.902,152 288,152C305.004,150.949 320.734,161.016 326.902,176.895L248,300.586L248,179.602ZM232,300.586L153.098,176.895C159.266,161.016 174.996,150.949 192,152C211.098,152 227.609,162.887 231.266,177.895C231.441,178.492 231.691,179.063 232,179.602L232,300.586ZM343.664,180.367L343.664,180.32C343.691,180.254 343.715,180.188 343.734,180.121C344.168,179.438 344.492,178.691 344.695,177.91C348.391,162.887 364.902,152 384,152C399.91,151.203 414.789,159.895 421.91,174.145L256.512,316.992L343.664,180.367ZM288,136C273.352,135.879 259.152,141.039 248,150.535L248,24.688C286.121,56.488 313.012,99.691 324.711,147.938C314.07,140.121 301.199,135.938 288,136ZM232,150.457C231.832,150.305 231.641,150.176 231.473,150.031C231.039,149.672 230.586,149.336 230.145,148.984C228.992,148.063 227.801,147.176 226.551,146.344C226,145.969 225.434,145.602 224.855,145.238C223.559,144.441 222.207,143.641 220.855,142.961C220.367,142.711 219.902,142.441 219.406,142.16C217.523,141.262 215.598,140.461 213.633,139.762C213.207,139.609 212.777,139.496 212.352,139.352C210.754,138.816 209.113,138.328 207.441,137.91C206.754,137.742 206.063,137.602 205.367,137.449C203.84,137.129 202.305,136.863 200.734,136.648C200.063,136.559 199.406,136.457 198.727,136.383C196.492,136.137 194.246,136.012 192,136C178.797,135.941 165.926,140.125 155.281,147.938C166.988,99.695 193.883,56.488 232,24.688L232,150.457ZM135.266,177.895C135.469,178.672 135.789,179.414 136.215,180.098C136.215,180.16 136.215,180.238 136.297,180.305L136.297,180.352L223.488,316.992L58.09,174.145C65.211,159.895 80.09,151.203 96,152C115.098,152 131.609,162.887 135.266,177.895ZM384,136C381.723,136.008 379.449,136.141 377.184,136.391C376.473,136.465 375.777,136.594 375.063,136.688C373.535,136.902 372.023,137.152 370.535,137.488C369.734,137.656 368.938,137.848 368.199,138.039C366.793,138.398 365.402,138.805 364.031,139.266C363.312,139.504 362.594,139.727 361.879,139.992C360.344,140.559 358.855,141.199 357.391,141.887C356.93,142.105 356.441,142.289 355.984,142.512C354.105,143.445 352.281,144.48 350.512,145.609C350.098,145.879 349.711,146.184 349.312,146.457C348,147.344 346.719,148.273 345.504,149.266C344.953,149.703 344.434,150.176 343.902,150.641C343.375,151.105 342.711,151.617 342.16,152.145C331.719,99.918 304.32,52.602 264.223,17.543C265.824,17.727 267.48,17.895 269.098,18.121C271.336,18.434 273.566,18.742 275.785,19.129C278.762,19.641 281.695,20.246 284.625,20.887C286.734,21.352 288.863,21.785 290.953,22.305C293.953,23.063 296.895,23.902 299.832,24.816C301.754,25.391 303.703,25.922 305.594,26.551C308.793,27.625 311.93,28.832 315.055,30.055C316.586,30.648 318.152,31.176 319.656,31.809C324.215,33.723 328.676,35.785 333.039,38C333.594,38.289 334.105,38.617 334.641,38.902C338.426,40.887 342.137,42.961 345.734,45.168C347.199,46.063 348.586,47.055 350.016,47.984C352.625,49.68 355.223,51.383 357.719,53.191C359.32,54.328 360.777,55.543 362.305,56.727C364.535,58.465 366.762,60.199 368.895,62.031C370.434,63.336 371.895,64.703 373.367,66.031C375.359,67.855 377.328,69.695 379.215,71.633C380.656,73.078 382.039,74.559 383.414,76.055C385.207,77.992 386.949,79.961 388.641,81.969C389.945,83.52 391.207,85.098 392.449,86.688C394.047,88.754 395.594,90.863 397.09,92.992C398.238,94.633 399.375,96.273 400.457,97.945C401.887,100.16 403.223,102.426 404.535,104.703C405.504,106.383 406.488,108.047 407.383,109.762C408.656,112.16 409.785,114.656 410.93,117.137C411.687,118.793 412.527,120.426 413.191,122.113C414.336,124.895 415.32,127.711 416.297,130.602C416.785,132.047 417.359,133.465 417.809,134.93C419.145,139.281 420.297,143.727 421.199,148.184C410.453,140.188 397.395,135.914 384,136ZM62.176,134.93C62.594,133.566 63.129,132.246 63.586,130.93C63.687,130.625 63.809,130.32 63.922,130.008C64.832,127.367 65.727,124.727 66.793,122.145C67.414,120.633 68.152,119.16 68.824,117.672C69.055,117.16 69.312,116.648 69.551,116.137C70.543,114.008 71.504,111.871 72.602,109.793C73.398,108.305 74.238,106.863 75.07,105.398C75.457,104.727 75.871,104.07 76.246,103.406C77.328,101.586 78.375,99.754 79.527,97.969C80.434,96.566 81.391,95.207 82.344,93.832C82.902,93.031 83.488,92.23 84.062,91.434C85.207,89.832 86.336,88.23 87.535,86.719C88.535,85.434 89.566,84.176 90.609,82.922C91.367,82 92.16,81.098 92.945,80.191C94.137,78.809 95.344,77.434 96.566,76.09C97.633,74.938 98.715,73.801 99.809,72.68C100.793,71.664 101.824,70.68 102.84,69.688C104.078,68.48 105.328,67.289 106.617,66.098C107.695,65.105 108.777,64.113 109.879,63.152C111.121,62.063 112.406,61.023 113.68,59.953C114.953,58.879 116.328,57.793 117.68,56.754C118.719,55.953 119.734,55.152 120.793,54.352C122.312,53.23 123.871,52.152 125.434,51.07C126.992,49.992 128.434,49.008 129.969,48.008C130.809,47.465 131.625,46.887 132.48,46.352C134.289,45.215 136.152,44.145 138.008,43.063C140.297,41.734 142.586,40.398 144.945,39.16C147.039,38.055 149.191,37.031 151.344,35.961C153.742,34.801 156.145,33.641 158.664,32.566C160.871,31.617 163.137,30.742 165.398,29.871C167.93,28.887 170.465,27.922 173.055,27.039C175.344,26.238 177.672,25.551 180,24.855L180.16,24.809C182.777,24.008 185.398,23.258 188.062,22.566C190.465,21.961 192.863,21.414 195.32,20.879L195.375,20.879C198.105,20.289 200.848,19.719 203.625,19.238C206.121,18.801 208.641,18.441 211.168,18.078C212.695,17.871 214.238,17.711 215.777,17.535C175.68,52.586 148.281,99.898 137.832,152.121C137.281,151.594 136.672,151.121 136.098,150.617C135.52,150.113 135.047,149.68 134.496,149.23C133.281,148.246 132,147.32 130.687,146.434C130.281,146.16 129.887,145.855 129.488,145.586C127.719,144.457 125.895,143.422 124.016,142.488C123.559,142.266 123.07,142.078 122.609,141.863C121.145,141.176 119.656,140.535 118.121,139.969C117.406,139.703 116.687,139.48 115.969,139.238C114.602,138.785 113.215,138.375 111.801,138.016C111,137.824 110.246,137.633 109.465,137.465C107.977,137.145 106.465,136.895 104.937,136.664C104.223,136.566 103.527,136.441 102.816,136.367C100.551,136.125 98.277,136 96,136C82.602,135.91 69.535,140.188 58.785,148.184C59.687,143.695 60.84,139.281 62.176,134.93ZM304,464L176,464L176,336L304,336L304,464Z" style="fill:rgb(249,249,249);fill-rule:nonzero;"/>
    <path d="M200,352C195.582,352 192,355.582 192,360L192,440C192,444.418 195.582,448 200,448L280,448C284.418,448 288,444.418 288,440L288,360C288,355.582 284.418,352 280,352L200,352ZM228.688,400L208,420.688L208,379.313L228.688,400ZM219.313,368L260.688,368L240,388.688L219.313,368ZM240,411.313L260.688,432L219.313,432L240,411.313ZM251.313,400L272,379.313L272,420.688L251.313,400Z" style="fill:rgb(249,249,249);fill-rule:nonzero;"/>
    <path d="M103.199,115.574C113.434,96.836 128.836,81.434 147.574,71.199C151.531,69.227 153.137,64.418 151.16,60.465C149.184,56.508 144.379,54.906 140.426,56.879C118.551,68.652 100.613,86.59 88.84,108.465C86.863,112.418 88.469,117.227 92.426,119.199C96.379,121.176 101.184,119.57 103.16,115.617L103.199,115.574Z" style="fill:rgb(249,249,249);fill-rule:nonzero;"/>
    <path d="M391.199,108.426C379.426,86.551 361.488,68.613 339.617,56.84C335.66,54.863 330.855,56.469 328.879,60.426C326.906,64.379 328.508,69.184 332.465,71.16C351.203,81.438 366.613,96.852 376.887,115.594C378.875,119.543 383.691,121.137 387.645,119.148C391.598,117.16 393.188,112.344 391.199,108.391L391.199,108.426Z" style="fill:rgb(249,249,249);fill-rule:nonzero;"/>
</svg>
