<?xml version="1.0" encoding="UTF-8" standalone="no"?>
<!DOCTYPE svg PUBLIC "-//W3C//DTD SVG 1.1//EN" "http://www.w3.org/Graphics/SVG/1.1/DTD/svg11.dtd">
<svg width="100%" height="100%" viewBox="0 0 512 512" version="1.1" xmlns="http://www.w3.org/2000/svg" xmlns:xlink="http://www.w3.org/1999/xlink" xml:space="preserve" xmlns:serif="http://www.serif.com/" style="fill-rule:evenodd;clip-rule:evenodd;stroke-linejoin:round;stroke-miterlimit:2;">
    <g id="_32-water">
        <g id="linear_color">
            <path d="M352,436L260.439,436L232.439,412L255.459,412C265.326,411.966 274.78,407.985 281.7,400.952C288.46,394.154 292.179,384.894 292,375.309C291.532,355.859 275.455,340.091 256,340L16,340C9.417,340 4,345.417 4,352C4,358.583 9.417,364 16,364L256,364C262.484,364.028 267.843,369.282 268,375.764C268.037,378.905 266.798,381.931 264.569,384.144C262.17,386.593 258.887,387.982 255.459,388L200,388C193.417,388 188,393.417 188,400C188,403.501 189.532,406.832 192.19,409.111L248.19,457.111C250.364,458.975 253.136,460 256,460L352,460C362.967,460.013 371.987,469.033 372,480L372,484L211.4,484L110.289,421.78C108.398,420.616 106.22,420 104,420L16,420C9.417,420 4,425.417 4,432C4,438.583 9.417,444 16,444L100.6,444L201.707,506.22C203.599,507.384 205.778,508.001 208,508L384,508C390.583,508 396,502.583 396,496L396,480C395.973,455.872 376.128,436.027 352,436Z" style="fill:rgb(249,249,249);fill-rule:nonzero;"/>
            <path d="M256,308C306.449,307.945 347.945,266.449 348,216C348,156.05 268.273,67.661 264.879,63.928C262.606,61.428 259.379,60 256,60C252.621,60 249.394,61.428 247.121,63.928C243.727,67.661 164,156.05 164,216C164.055,266.449 205.551,307.945 256,308ZM256,90.271C280.866,119.842 324,178.855 324,216C324,253.304 293.304,284 256,284C218.696,284 188,253.304 188,216C188,178.905 231.139,119.859 256,90.271Z" style="fill:rgb(249,249,249);fill-rule:nonzero;"/>
            <path d="M449.742,39.053C437.505,22.036 425.442,8.553 424.931,7.985C422.656,5.45 419.406,4 416,4C412.594,4 409.344,5.45 407.069,7.985C406.561,8.551 394.495,22.036 382.258,39.053C364.589,63.621 356,82.249 356,96C356,128.915 383.085,156 416,156C448.915,156 476,128.915 476,96C476,82.249 467.411,63.621 449.742,39.053ZM416,132C396.259,131.978 380.022,115.741 380,96C380,83.21 398.883,55.325 416,34.453C433.117,55.326 452,83.211 452,96C451.978,115.741 435.741,131.978 416,132Z" style="fill:rgb(249,249,249);fill-rule:nonzero;"/>
            <path d="M96,156C128.901,155.963 155.963,128.901 156,96C156,82.249 147.411,63.621 129.742,39.053C117.505,22.036 105.442,8.553 104.931,7.985C102.656,5.45 99.406,4 96,4C92.594,4 89.344,5.45 87.069,7.985C86.561,8.551 74.495,22.036 62.258,39.053C44.589,63.621 36,82.249 36,96C36.037,128.901 63.099,155.963 96,156ZM96,34.453C113.117,55.326 132,83.211 132,96C132,115.749 115.749,132 96,132C76.251,132 60,115.749 60,96C60,83.21 78.883,55.325 96,34.453Z" style="fill:rgb(249,249,249);fill-rule:nonzero;"/>
        </g>
    </g>
</svg>
