<?xml version="1.0" encoding="UTF-8" standalone="no"?>
<!DOCTYPE svg PUBLIC "-//W3C//DTD SVG 1.1//EN" "http://www.w3.org/Graphics/SVG/1.1/DTD/svg11.dtd">
<svg width="100%" height="100%" viewBox="0 0 497 497" version="1.1" xmlns="http://www.w3.org/2000/svg" xmlns:xlink="http://www.w3.org/1999/xlink" xml:space="preserve" xmlns:serif="http://www.serif.com/" style="fill-rule:evenodd;clip-rule:evenodd;stroke-linejoin:round;stroke-miterlimit:2;">
    <g>
        <g>
            <g>
                <path d="M475.299,106.918L463.252,103.153C460.24,102.4 457.228,101.647 453.464,101.647C439.911,101.647 427.864,110.682 423.346,123.482L416.57,143.811L416.57,128C416.57,125.741 415.064,123.482 413.558,121.976L290.076,2.259C288.57,0.753 286.311,0 284.805,0L43.111,0C38.593,0 35.582,3.012 35.582,7.529L35.582,30.87L7.723,30.87C3.205,30.87 0.194,33.882 0.194,38.399L0.194,489.411C0.194,493.929 3.206,496.94 7.723,496.94L373.652,496.94C378.17,496.94 381.181,493.928 381.181,489.411L381.181,466.07L409.04,466.07C413.558,466.07 416.569,463.058 416.569,458.541L416.569,356.894L437.651,328.282L438.404,326.023L494.875,146.07C500.899,129.506 491.864,112.188 475.299,106.918ZM292.334,25.6L390.969,120.471L292.334,120.471L292.334,25.6ZM366.123,481.882L15.252,481.882L15.252,45.929L35.581,45.929L35.581,458.541C35.581,463.059 38.593,466.07 43.11,466.07L366.122,466.07L366.122,481.882L366.123,481.882ZM402.264,451.012L50.64,451.012L50.64,15.059L277.275,15.059L277.275,128C277.275,132.518 280.287,135.529 284.804,135.529L402.263,135.529L402.263,192L366.875,303.435L366.875,305.694L368.381,401.318C368.381,404.33 370.64,407.342 373.652,408.094C376.664,408.847 380.428,408.094 381.934,405.082L402.263,377.976L402.263,451.012L402.264,451.012ZM382.687,377.976L381.181,315.482L418.828,327.529L382.687,377.976ZM481.323,141.553L427.111,313.977L383.44,299.671L437.652,128C440.664,119.718 449.699,114.447 457.981,117.459L470.028,121.224C479.064,123.482 484.334,133.271 481.323,141.553Z" style="fill:rgb(249,249,249);fill-rule:nonzero;"/>
                <path d="M101.84,135.529L210.264,135.529C214.782,135.529 217.793,132.517 217.793,128L217.793,51.2C217.793,46.682 214.781,43.671 210.264,43.671L101.84,43.671C97.322,43.671 94.311,46.683 94.311,51.2L94.311,128C94.311,131.765 98.076,135.529 101.84,135.529ZM109.37,58.729L202.735,58.729L202.735,120.47L109.37,120.47L109.37,58.729Z" style="fill:rgb(249,249,249);fill-rule:nonzero;"/>
                <path d="M86.782,206.306L315.676,206.306C320.194,206.306 323.205,203.294 323.205,198.777C323.205,194.259 320.193,191.248 315.676,191.248L86.782,191.248C82.264,191.248 79.253,194.26 79.253,198.777C79.252,203.294 82.264,206.306 86.782,206.306Z" style="fill:rgb(249,249,249);fill-rule:nonzero;"/>
                <path d="M86.782,261.271L315.676,261.271C320.194,261.271 323.205,258.259 323.205,253.742C323.205,249.225 320.193,246.213 315.676,246.213L86.782,246.213C82.264,246.213 79.253,249.225 79.253,253.742C79.253,258.259 82.264,261.271 86.782,261.271Z" style="fill:rgb(249,249,249);fill-rule:nonzero;"/>
                <path d="M86.782,316.235L315.676,316.235C320.194,316.235 323.205,313.223 323.205,308.706C323.205,304.189 320.193,301.177 315.676,301.177L86.782,301.177C82.264,301.177 79.253,304.189 79.253,308.706C79.253,313.223 82.264,316.235 86.782,316.235Z" style="fill:rgb(249,249,249);fill-rule:nonzero;"/>
                <path d="M322.452,363.671C322.452,359.153 319.44,356.142 314.923,356.142L86.782,356.142C82.264,356.142 79.253,359.154 79.253,363.671C79.253,368.188 82.265,371.2 86.782,371.2L315.676,371.2C319.44,371.2 322.452,367.435 322.452,363.671Z" style="fill:rgb(249,249,249);fill-rule:nonzero;"/>
                <path d="M347.299,411.106L233.605,411.106C229.087,411.106 226.076,414.118 226.076,418.635C226.076,423.152 229.088,426.164 233.605,426.164L346.546,426.164C351.064,426.164 354.075,423.152 354.075,418.635C354.075,414.118 351.064,411.106 347.299,411.106Z" style="fill:rgb(249,249,249);fill-rule:nonzero;"/>
            </g>
        </g>
    </g>
</svg>
